<svg width="82" height="67" viewBox="0 0 82 67" fill="none" xmlns="http://www.w3.org/2000/svg">
<path d="M73.1797 34.52C78.4661 34.52 81.1094 37.3521 81.1094 43.0161V58.1958C81.1094 63.8599 78.4661 66.6919 73.1797 66.6919H55.5078C50.2214 66.6919 47.5781 63.8599 47.5781 58.1958V43.0161C47.5781 33.2739 48.2201 25.1177 49.5039 18.5474C50.7878 11.9015 54.0729 6.53957 59.3594 2.46144C63.2109 -0.483873 66.2318 -0.785956 68.4219 1.55519L72.7266 6.19972C75.4453 9.06951 75.0299 11.9015 71.4805 14.6958C69.0638 16.5838 67.4401 19.0383 66.6094 22.0591C65.7786 25.0799 65.3633 29.2336 65.3633 34.52H73.1797ZM25.6016 34.52C30.888 34.52 33.5312 37.3521 33.5312 43.0161V58.1958C33.5312 63.8599 30.888 66.6919 25.6016 66.6919H7.92969C2.64323 66.6919 0 63.8599 0 58.1958V43.0161C0 33.2739 0.641927 25.1177 1.92578 18.5474C3.20964 11.9015 6.49479 6.53957 11.7812 2.46144C15.6328 -0.483873 18.6536 -0.785956 20.8438 1.55519L25.1484 6.19972C27.8672 9.06951 27.4518 11.9015 23.9023 14.6958C21.4857 16.5838 19.862 19.0383 19.0312 22.0591C18.2005 25.0799 17.7852 29.2336 17.7852 34.52H25.6016Z" fill="#33383F"/>
</svg>
